8_US_stride2.mot
nRows=153
nColumns=3

name 8_US_stride2.mot
datacolumns 3
datarows 153
range 0.130000 0.890000
endheader
time	soleus_l	med_gas_l
        0.1300000000	       34.7012642385	       38.5859875614	
        0.1350000000	       34.6398666555	       38.6207357560	
        0.1400000000	       34.4464499291	       38.4753771874	
        0.1450000000	       34.1172654513	       38.0582690878	
        0.1500000000	       33.7236568083	       37.3618227584	
        0.1550000000	       33.3288440273	       36.4671234512	
        0.1600000000	       33.0003404298	       35.5204512363	
        0.1650000000	       32.8153722761	       34.8696444701	
        0.1700000000	       32.7718488132	       34.2665002815	
        0.1750000000	       32.7842686867	       33.7419811420	
        0.1800000000	       33.0024016808	       33.4502580069	
        0.1850000000	       33.3208397923	       33.3231900903	
        0.1900000000	       33.6828252408	       33.2746582851	
        0.1950000000	       33.9329205411	       33.2387959017	
        0.2000000000	       34.0726892374	       33.1957269624	
        0.2050000000	       34.1125407006	       33.0907121285	
        0.2100000000	       34.0180112892	       32.9444746456	
        0.2150000000	       33.8088901921	       32.7661298717	
        0.2200000000	       33.5676505589	       32.5653911345	
        0.2250000000	       33.3750597778	       32.3680772373	
        0.2300000000	       33.2664421131	       32.2146167118	
        0.2350000000	       33.1905365967	       32.0321495639	
        0.2400000000	       33.1433690499	       31.8209199711	
        0.2450000000	       33.1125411290	       31.5992715671	
        0.2500000000	       33.0705698819	       31.3791134578	
        0.2550000000	       33.0180479096	       31.2054924222	
        0.2600000000	       32.9340690949	       30.9956285080	
        0.2650000000	       32.7880462235	       30.7148014189	
        0.2700000000	       32.6038219947	       30.4326490293	
        0.2750000000	       32.3959163752	       30.1777364006	
        0.2800000000	       32.1568535728	       29.9462723635	
        0.2850000000	       31.9453654191	       29.7759197566	
        0.2900000000	       31.7517849586	       29.6364948588	
        0.2950000000	       31.4848107570	       29.4464035905	
        0.3000000000	       31.2136424922	       29.2404428024	
        0.3050000000	       30.9410538340	       29.0265856265	
        0.3100000000	       30.6542577441	       28.8213729606	
        0.3150000000	       30.3660378436	       28.6667393246	
        0.3200000000	       30.1397157703	       28.5836333979	
        0.3250000000	       29.8341134238	       28.5708917530	
        0.3300000000	       29.4463782985	       28.5828638795	
        0.3350000000	       29.0216996793	       28.6640810717	
        0.3400000000	       28.5422306664	       28.7489374179	
        0.3450000000	       28.0343959752	       28.7959452956	
        0.3500000000	       27.6217673802	       28.7849720322	
        0.3550000000	       27.1935244541	       28.7372141994	
        0.3600000000	       26.5955846252	       28.5903276160	
        0.3650000000	       25.9493034243	       28.3778242858	
        0.3700000000	       25.2186264286	       28.1163550260	
        0.3750000000	       24.5746527142	       27.8912157203	
        0.3800000000	       23.9874098700	       27.6973422422	
        0.3850000000	       23.1844296079	       27.4526813231	
        0.3900000000	       22.4505669435	       27.2346078231	
        0.3950000000	       21.8821493692	       27.0417032559	
        0.4000000000	       21.5031365411	       26.8521740045	
        0.4050000000	       21.3425034365	       26.6621023726	
        0.4100000000	       21.3424153312	       26.5104519411	
        0.4150000000	       21.4166021899	       26.3116134679	
        0.4200000000	       21.6689421384	       26.0820947785	
        0.4250000000	       21.9989469533	       25.8722457479	
        0.4300000000	       22.3893474735	       25.6901134562	
        0.4350000000	       22.8226985022	       25.5548862841	
        0.4400000000	       23.1662091814	       25.5046180572	
        0.4450000000	       23.5054821501	       25.4909244896	
        0.4500000000	       23.9382518072	       25.5465044573	
        0.4550000000	       24.3364204028	       25.6805807016	
        0.4600000000	       24.6840879028	       25.8819925893	
        0.4650000000	       24.9983133727	       26.1499151258	
        0.4700000000	       25.2609016250	       26.4370339827	
        0.4750000000	       25.4702899056	       26.7013451161	
        0.4800000000	       25.7650919439	       27.0928726636	
        0.4850000000	       26.0910728865	       27.5396971430	
        0.4900000000	       26.4318784667	       28.0188722172	
        0.4950000000	       26.7622094741	       28.5034826479	
        0.5000000000	       26.9788726786	       28.8416527822	
        0.5050000000	       27.2078091453	       29.2257480986	
        0.5100000000	       27.4258449860	       29.5963294719	
        0.5150000000	       27.6189230615	       29.8739059153	
        0.5200000000	       27.8413304182	       30.0728955937	
        0.5250000000	       28.1587815881	       30.2063002958	
        0.5300000000	       28.4724503062	       30.2701710962	
        0.5350000000	       28.8392388264	       30.2955119361	
        0.5400000000	       29.3718045502	       30.2991539625	
        0.5450000000	       29.8859548371	       30.2444318635	
        0.5500000000	       30.3246587971	       30.1252633890	
        0.5550000000	       30.6671695833	       29.9261787528	
        0.5600000000	       30.8868201349	       29.6905280423	
        0.5650000000	       31.0164114308	       29.4728251385	
        0.5700000000	       31.1499265917	       29.1960097288	
        0.5750000000	       31.2874250874	       28.9237228576	
        0.5800000000	       31.4271603563	       28.7386535969	
        0.5850000000	       31.5603486706	       28.6735560227	
        0.5900000000	       31.6765627761	       28.7295405913	
        0.5950000000	       31.7475543750	       28.8516327914	
        0.6000000000	       31.8134826733	       29.0616553150	
        0.6050000000	       31.8826736408	       29.3791948236	
        0.6100000000	       31.9509036467	       29.6964887131	
        0.6150000000	       32.0401478240	       29.9880016528	
        0.6200000000	       32.1551551133	       30.2095717046	
        0.6250000000	       32.2614953228	       30.3200591127	
        0.6300000000	       32.3595912680	       30.3682648535	
        0.6350000000	       32.4890436757	       30.3751010260	
        0.6400000000	       32.6104501961	       30.3544568890	
        0.6450000000	       32.7292435533	       30.3229860639	
        0.6500000000	       32.8403910558	       30.3126472116	
        0.6550000000	       32.9420310463	       30.3134925270	
        0.6600000000	       33.1058309517	       30.3292101209	
        0.6650000000	       33.3241678839	       30.3579536798	
        0.6700000000	       33.5903049780	       30.3809086492	
        0.6750000000	       33.9056286722	       30.3892175548	
        0.6800000000	       34.2514023739	       30.3753994811	
        0.6850000000	       34.5170507716	       30.3536900556	
        0.6900000000	       34.8314991678	       30.3218842565	
        0.6950000000	       35.2471485924	       30.2861112853	
        0.7000000000	       35.6470544533	       30.2712985361	
        0.7050000000	       36.0310796783	       30.3011510274	
        0.7100000000	       36.3674072401	       30.3850413465	
        0.7150000000	       36.5869457664	       30.5027586035	
        0.7200000000	       36.7283200199	       30.6458321756	
        0.7250000000	       36.8381950980	       30.8834022553	
        0.7300000000	       36.8415430140	       31.1502387180	
        0.7350000000	       36.8132869041	       31.4405807597	
        0.7400000000	       36.7526538759	       31.7491372294	
        0.7450000000	       36.7224979005	       32.0524383191	
        0.7500000000	       36.7270872174	       32.3061297369	
        0.7550000000	       36.7576381611	       32.6757691516	
        0.7600000000	       36.8433855541	       33.1790822516	
        0.7650000000	       36.9557176088	       33.7465352682	
        0.7700000000	       37.0864505749	       34.3740385546	
        0.7750000000	       37.1919564785	       34.8432935804	
        0.7800000000	       37.3180495552	       35.3379636871	
        0.7850000000	       37.4788094401	       35.8711810053	
        0.7900000000	       37.6219483029	       36.2763721311	
        0.7950000000	       37.7253059451	       36.5841290325	
        0.8000000000	       37.7171098721	       36.8563144699	
        0.8050000000	       37.6535780399	       37.0954472378	
        0.8100000000	       37.4815107513	       37.3409351354	
        0.8150000000	       37.1259915982	       37.7655583677	
        0.8200000000	       36.6134646285	       38.2982973394	
        0.8250000000	       35.9838826446	       38.8775034157	
        0.8300000000	       35.2849501226	       39.4237459002	
        0.8350000000	       34.6273830747	       39.8265481555	
        0.8400000000	       34.1589926249	       40.0470265396	
        0.8450000000	       33.6638301923	       40.1092749561	
        0.8500000000	       33.2492750959	       40.0893716964	
        0.8550000000	       33.0408374843	       39.8940745793	
        0.8600000000	       33.0012391595	       39.6410932673	
        0.8650000000	       33.1571028242	       39.3958385038	
        0.8700000000	       33.3629548072	       39.2420059428	
        0.8750000000	       33.6264811356	       39.1201606737	
        0.8800000000	       34.0052056328	       39.0007500175	
        0.8850000000	       34.3491488060	       38.9147451337	
        0.8900000000	       34.6019031260	       38.8507771174	
